<?xml version="1.0" standalone="no"?>
<!DOCTYPE svg PUBLIC "-//W3C//DTD SVG 20010904//EN"
 "http://www.w3.org/TR/2001/REC-SVG-20010904/DTD/svg10.dtd">
<svg version="1.0" xmlns="http://www.w3.org/2000/svg"
 width="300.000000pt" height="424.000000pt" viewBox="0 0 300.000000 424.000000"
 preserveAspectRatio="xMidYMid meet">
<metadata>
Created by potrace 1.10, written by Peter Selinger 2001-2011
</metadata>
<g transform="translate(0.000000,424.000000) scale(0.100000,-0.100000)"
fill="#000000" stroke="none">
<path d="M1950 3478 c-30 -3 -86 -7 -125 -7 -71 -1 -207 -28 -282 -55 -22 -8
-45 -11 -49 -8 -4 4 -5 2 -1 -3 3 -6 -7 -16 -22 -23 -57 -25 -131 -112 -131
-154 0 -10 -4 -18 -9 -18 -5 0 -9 -16 -9 -36 0 -21 3 -32 8 -25 5 9 9 7 12 -6
3 -10 9 -27 14 -37 6 -15 4 -17 -7 -11 -12 7 -12 6 -1 -6 7 -8 18 -14 25 -14
7 0 12 -7 12 -15 0 -8 5 -15 12 -15 7 0 18 -6 25 -13 11 -11 9 -12 -7 -6 -21
8 -21 6 9 -16 13 -10 17 -10 12 -2 -11 19 11 14 26 -5 7 -10 20 -18 28 -18 8
0 14 -6 12 -13 -2 -9 4 -11 18 -7 17 5 23 2 27 -15 4 -13 8 -17 13 -11 3 7 14
9 23 5 9 -3 14 -11 10 -17 -3 -6 -1 -7 6 -3 16 10 53 -3 45 -16 -4 -6 1 -8 12
-4 22 6 104 -19 83 -26 -8 -3 0 -5 16 -5 48 0 87 -12 79 -25 -5 -8 -2 -9 10
-5 10 4 29 4 43 1 19 -5 22 -9 11 -16 -9 -6 -6 -7 10 -3 20 6 66 -4 117 -25
11 -4 40 -13 65 -20 25 -7 51 -14 58 -16 7 -2 10 -9 6 -15 -4 -8 -3 -9 5 -5 7
5 24 5 39 1 21 -5 23 -8 11 -16 -10 -8 -8 -9 9 -4 12 3 32 3 43 0 17 -6 19 -9
8 -17 -10 -7 -8 -8 7 -3 24 6 56 -3 49 -14 -2 -4 6 -7 18 -7 12 1 21 -4 20
-10 -1 -6 8 -10 20 -10 12 1 21 -4 20 -10 -1 -7 6 -10 17 -7 12 3 20 0 20 -6
0 -7 -5 -9 -12 -5 -7 4 -8 3 -4 -4 4 -6 14 -8 22 -5 22 8 74 -45 74 -76 0 -95
-72 -179 -215 -252 -334 -171 -891 -260 -1633 -261 -240 -1 -285 2 -270 17 3
3 135 6 294 7 182 1 259 4 209 8 -72 6 -246 7 -453 2 -39 -1 -71 -5 -70 -9 2
-8 -15 -44 -89 -181 -25 -46 -42 -86 -39 -90 10 -9 20 6 72 108 27 52 54 99
59 103 6 5 68 6 140 3 166 -8 643 10 805 29 577 69 847 141 1062 282 75 50
112 89 139 148 36 79 18 134 -58 183 -105 66 -220 110 -538 204 -437 129 -575
211 -575 340 0 47 28 100 73 140 43 38 163 87 257 105 131 24 517 24 755 0
194 -20 197 -21 189 -41 -3 -8 -1 -17 4 -20 12 -7 23 30 15 50 -3 9 -22 14
-57 14 -28 0 -96 7 -151 15 -55 8 -152 15 -215 16 -63 0 -140 4 -170 7 -30 4
-80 4 -110 0z"/>
<path d="M1820 3390 c0 -9 159 -3 169 6 2 2 -35 4 -82 4 -50 0 -87 -4 -87 -10z"/>
<path d="M2150 3390 c0 -6 35 -9 88 -9 76 1 81 2 42 10 -64 11 -130 11 -130
-1z"/>
<path d="M1629 3360 c-34 -10 -109 -53 -109 -62 0 -12 8 -10 49 17 22 13 51
27 65 31 14 3 26 10 26 15 0 5 -1 9 -2 8 -2 0 -15 -4 -29 -9z"/>
<path d="M2535 3359 c28 -5 65 -12 83 -15 20 -3 32 -10 29 -17 -2 -7 0 -21 5
-31 10 -18 7 -18 -38 -12 -330 43 -741 53 -868 22 -76 -19 -96 -28 -120 -52
-54 -54 41 -100 414 -199 228 -61 426 -127 522 -175 180 -89 304 -224 344
-374 30 -113 6 -274 -57 -376 -17 -28 -29 -54 -25 -57 3 -3 8 2 12 11 3 9 10
13 15 10 9 -5 -16 -36 -76 -95 -16 -16 -26 -29 -22 -29 16 0 -64 -68 -131
-113 -84 -56 -176 -105 -272 -147 -41 -17 -88 -38 -105 -45 -28 -13 -100 -36
-261 -84 -39 -12 -104 -28 -145 -35 -41 -8 -85 -17 -99 -20 -104 -23 -273 -51
-395 -65 -447 -53 -496 -56 -967 -56 -207 0 -280 3 -290 13 -9 9 -9 12 3 12 7
1 167 1 354 2 187 0 392 5 455 10 190 14 440 40 605 62 11 2 29 6 40 9 11 4
49 11 85 17 309 48 576 128 809 243 62 31 119 61 127 68 8 6 14 8 14 3 0 -4 9
2 20 14 12 12 25 22 30 22 16 0 194 179 186 187 -4 4 -12 0 -17 -9 -25 -45
-191 -182 -269 -222 -14 -7 -41 -22 -60 -32 -152 -86 -446 -184 -715 -239 -83
-17 -359 -61 -430 -69 -374 -42 -820 -60 -1150 -47 l-110 5 -27 -50 c-15 -27
-26 -53 -25 -57 1 -5 170 -10 375 -10 205 -1 363 1 350 5 -13 4 7 6 45 3 37
-2 91 0 120 5 28 5 95 11 147 14 52 3 125 10 161 15 68 11 172 22 221 25 14 0
24 4 22 8 -3 4 15 7 38 7 24 0 57 4 75 10 18 5 41 7 53 4 11 -3 20 -1 20 5 0
6 12 11 28 12 78 4 92 5 92 11 0 3 37 14 83 23 92 20 222 54 252 66 11 5 31
12 45 15 21 6 84 29 165 60 11 5 24 7 29 6 5 -1 12 2 15 6 3 5 53 33 111 62
57 29 116 61 131 72 15 10 30 19 34 19 4 0 24 14 45 30 21 17 44 30 51 30 7 0
9 3 6 6 -3 4 5 16 19 27 57 44 153 170 180 235 16 37 32 70 37 73 5 4 7 12 3
18 -4 6 -2 20 4 31 7 13 7 26 2 36 -7 13 -11 5 -16 -30 -21 -140 -154 -315
-326 -430 -127 -85 -370 -196 -525 -241 -33 -10 -78 -23 -100 -31 -47 -16
-122 -33 -295 -68 -109 -22 -203 -36 -595 -86 -212 -27 -294 -30 -699 -31
-289 -1 -360 1 -367 12 -4 7 -7 14 -6 16 1 1 196 4 432 6 237 3 477 10 535 16
58 6 150 16 205 21 447 48 846 138 1108 251 324 139 510 295 597 499 21 49 24
72 26 208 1 84 -2 154 -6 157 -5 3 -6 -5 -3 -17 4 -21 3 -21 -7 -5 -7 10 -10
27 -7 38 3 10 2 17 -3 14 -10 -6 -22 24 -14 36 3 5 0 8 -8 7 -7 -2 -12 5 -12
14 1 10 -3 16 -8 15 -6 -1 -13 4 -16 12 -3 9 0 11 8 6 9 -5 11 -4 6 4 -4 6
-11 9 -15 7 -4 -3 -13 4 -20 16 -10 16 -10 19 1 12 7 -4 5 2 -6 14 -10 12 -23
19 -27 16 -5 -3 -9 2 -9 10 0 8 -5 18 -12 22 -7 5 -8 3 -3 -7 8 -12 6 -12 -8
0 -9 7 -14 18 -10 24 3 5 1 7 -5 3 -5 -3 -12 -3 -14 1 -10 24 -239 153 -270
153 -5 0 -16 7 -24 15 -9 8 -26 15 -38 15 -12 0 -26 3 -29 7 -4 3 -19 8 -34 9
-14 2 -29 7 -32 11 -3 4 -13 9 -21 10 -8 1 -31 6 -50 12 -19 5 -83 22 -142 37
-59 16 -104 32 -101 38 3 5 1 6 -5 3 -15 -10 -112 14 -105 26 3 6 2 7 -4 4
-25 -16 -263 72 -263 97 0 18 49 42 125 61 57 15 109 18 285 17 118 0 258 -6
310 -12 52 -5 130 -13 173 -17 42 -3 77 -9 77 -12 0 -3 19 -7 41 -8 37 -1 40
1 35 20 -4 12 -9 37 -13 55 -5 28 -10 32 -37 32 -17 0 -56 2 -86 5 l-55 4 50
-10z"/>
<path d="M1490 3168 c0 -18 19 -36 77 -72 23 -14 45 -21 48 -16 3 5 -10 16
-30 25 -19 10 -48 31 -65 48 -20 21 -30 26 -30 15z"/>
<path d="M1790 3012 c0 -5 37 -19 83 -31 45 -13 90 -25 100 -28 9 -3 17 -1 17
5 0 5 -43 21 -95 36 -107 29 -105 29 -105 18z"/>
<path d="M2190 2901 c0 -5 42 -24 93 -41 50 -17 98 -34 105 -37 6 -2 12 0 12
5 0 6 -37 23 -82 40 -117 42 -128 45 -128 33z"/>
<path d="M2610 2704 c0 -4 18 -26 39 -50 26 -27 46 -62 56 -98 9 -31 21 -58
26 -61 16 -10 10 41 -10 88 -27 62 -111 154 -111 121z"/>
<path d="M2480 2486 c-18 -48 -105 -120 -202 -168 -90 -45 -206 -90 -239 -93
-8 0 -28 -6 -45 -12 -16 -6 -45 -16 -64 -22 l-35 -11 40 6 c88 11 382 121 393
146 2 5 8 8 13 8 35 0 174 148 156 166 -4 4 -11 -5 -17 -20z"/>
<path d="M2650 2283 c0 -16 -92 -104 -139 -133 -44 -27 -45 -28 -32 -49 7 -11
18 -7 58 22 26 19 70 58 97 87 45 48 48 53 32 68 -9 9 -16 11 -16 5z"/>
<path d="M1855 2180 c4 -7 -59 -19 -135 -26 -8 0 -17 -2 -20 -4 -3 -1 -14 -4
-25 -5 -11 -1 -42 -7 -70 -13 -27 -6 -57 -10 -65 -9 -8 1 -53 -4 -100 -10 -47
-6 -96 -11 -110 -11 -14 0 -59 -5 -100 -11 -41 -5 -103 -10 -137 -11 -34 0
-65 -5 -68 -10 -4 -7 17 -8 62 -5 104 9 373 35 418 41 87 11 348 56 367 63
l22 8 -22 5 c-12 4 -20 2 -17 -2z"/>
<path d="M2165 1976 c-16 -7 -76 -25 -132 -41 -83 -23 -103 -32 -103 -47 0
-22 -6 -23 101 7 129 37 201 65 196 78 -5 17 -28 18 -62 3z"/>
<path d="M1559 1836 c-2 -2 -49 -9 -104 -15 -151 -17 -165 -20 -165 -42 0 -11
2 -19 4 -19 8 0 160 20 239 31 65 10 77 14 77 30 0 13 -7 19 -23 19 -13 0 -26
-2 -28 -4z m-24 -25 c-6 -5 -31 -11 -57 -13 -56 -4 -50 9 7 15 22 2 44 4 50 5
6 1 6 -1 0 -7z m-140 -21 c-11 -5 -36 -8 -55 -8 l-35 0 30 8 c17 4 41 8 55 8
23 1 23 0 5 -8z"/>
<path d="M157 1629 c-43 -83 -75 -154 -72 -157 9 -9 23 10 63 88 21 41 43 84
50 95 7 11 17 33 22 49 9 24 14 28 39 23 23 -5 30 -2 39 19 10 20 9 24 -6 24
-9 0 -26 3 -37 5 -17 5 -31 -16 -98 -146z"/>
<path d="M786 1769 c-145 -7 -165 -13 -166 -43 0 -9 317 1 332 10 13 8 9 44
-4 42 -7 0 -80 -4 -162 -9z m132 -19 c-15 -4 -80 -8 -145 -7 l-118 0 85 7
c131 10 210 10 178 0z"/>
</g>
</svg>
